<mxfile host="app.diagrams.net" modified="2020-09-23T12:33:28.931Z" agent="5.0 (Windows NT 10.0; Win64; x64) AppleWebKit/537.36 (KHTML, like Gecko) Chrome/84.0.4147.135 YaBrowser/20.8.3.115 Yowser/2.5 Safari/537.36" etag="cSfUszktvoxdIhbt1tj4" version="13.7.5" type="github">
  <diagram id="vmjNjt5R55gVxzUjnfc6" name="Page-1">
    <mxGraphModel dx="716" dy="381" grid="1" gridSize="10" guides="1" tooltips="1" connect="1" arrows="1" fold="1" page="1" pageScale="1" pageWidth="827" pageHeight="1169" math="0" shadow="0">
      <root>
        <mxCell id="0" />
        <mxCell id="1" parent="0" />
        <mxCell id="a82pPWIUnicryIryXYcl-17" value="" style="edgeStyle=orthogonalEdgeStyle;rounded=0;orthogonalLoop=1;jettySize=auto;html=1;" parent="1" source="a82pPWIUnicryIryXYcl-1" target="a82pPWIUnicryIryXYcl-2" edge="1">
          <mxGeometry relative="1" as="geometry" />
        </mxCell>
        <mxCell id="a82pPWIUnicryIryXYcl-1" value="" style="rounded=1;whiteSpace=wrap;html=1;" parent="1" vertex="1">
          <mxGeometry x="280" y="20" width="120" height="60" as="geometry" />
        </mxCell>
        <mxCell id="a82pPWIUnicryIryXYcl-22" value="" style="edgeStyle=orthogonalEdgeStyle;rounded=0;orthogonalLoop=1;jettySize=auto;html=1;" parent="1" source="a82pPWIUnicryIryXYcl-6" target="a82pPWIUnicryIryXYcl-21" edge="1">
          <mxGeometry relative="1" as="geometry" />
        </mxCell>
        <mxCell id="a82pPWIUnicryIryXYcl-6" value="" style="rounded=0;whiteSpace=wrap;html=1;shadow=0;" parent="1" vertex="1">
          <mxGeometry x="280" y="180" width="120" height="60" as="geometry" />
        </mxCell>
        <mxCell id="a82pPWIUnicryIryXYcl-20" value="" style="edgeStyle=orthogonalEdgeStyle;rounded=0;orthogonalLoop=1;jettySize=auto;html=1;" parent="1" source="a82pPWIUnicryIryXYcl-2" target="a82pPWIUnicryIryXYcl-6" edge="1">
          <mxGeometry relative="1" as="geometry" />
        </mxCell>
        <mxCell id="a82pPWIUnicryIryXYcl-2" value="&lt;font style=&quot;font-size: 9px&quot;&gt;num&lt;/font&gt;" style="shape=parallelogram;perimeter=parallelogramPerimeter;whiteSpace=wrap;html=1;fixedSize=1;shadow=0;" parent="1" vertex="1">
          <mxGeometry x="280" y="100" width="120" height="60" as="geometry" />
        </mxCell>
        <mxCell id="a82pPWIUnicryIryXYcl-11" value="&lt;font style=&quot;font-size: 9px&quot;&gt;in_order_acc = True&lt;br&gt;in_order_desc = True&lt;/font&gt;" style="text;html=1;strokeColor=none;fillColor=none;align=center;verticalAlign=middle;whiteSpace=wrap;rounded=0;shadow=0;" parent="1" vertex="1">
          <mxGeometry x="280" y="180" width="120" height="60" as="geometry" />
        </mxCell>
        <mxCell id="a82pPWIUnicryIryXYcl-25" value="" style="edgeStyle=orthogonalEdgeStyle;rounded=0;orthogonalLoop=1;jettySize=auto;html=1;" parent="1" source="a82pPWIUnicryIryXYcl-21" target="a82pPWIUnicryIryXYcl-24" edge="1">
          <mxGeometry relative="1" as="geometry" />
        </mxCell>
        <mxCell id="a82pPWIUnicryIryXYcl-21" value="&lt;font style=&quot;font-size: 9px&quot;&gt;whole_part = num // 10&lt;br&gt;fractional_part = num % 10&lt;br&gt;prev = fractional_part&lt;/font&gt;" style="rounded=0;whiteSpace=wrap;html=1;shadow=0;" parent="1" vertex="1">
          <mxGeometry x="280" y="260" width="120" height="60" as="geometry" />
        </mxCell>
        <mxCell id="a82pPWIUnicryIryXYcl-27" value="" style="edgeStyle=orthogonalEdgeStyle;rounded=0;orthogonalLoop=1;jettySize=auto;html=1;" parent="1" source="a82pPWIUnicryIryXYcl-24" target="a82pPWIUnicryIryXYcl-26" edge="1">
          <mxGeometry relative="1" as="geometry" />
        </mxCell>
        <mxCell id="a82pPWIUnicryIryXYcl-24" value="&lt;font size=&quot;1&quot;&gt;sum_of_digits = 0&lt;br&gt;count_of_digits = 0&lt;br&gt;&lt;/font&gt;" style="rounded=0;whiteSpace=wrap;html=1;shadow=0;" parent="1" vertex="1">
          <mxGeometry x="280" y="340" width="120" height="60" as="geometry" />
        </mxCell>
        <mxCell id="k7usKjHbY5VaeDFLSovS-5" value="" style="edgeStyle=orthogonalEdgeStyle;rounded=0;orthogonalLoop=1;jettySize=auto;html=1;" edge="1" parent="1" source="a82pPWIUnicryIryXYcl-26" target="k7usKjHbY5VaeDFLSovS-4">
          <mxGeometry relative="1" as="geometry" />
        </mxCell>
        <mxCell id="a82pPWIUnicryIryXYcl-26" value="" style="rhombus;whiteSpace=wrap;html=1;rounded=0;shadow=0;" parent="1" vertex="1">
          <mxGeometry x="280" y="420" width="120" height="80" as="geometry" />
        </mxCell>
        <mxCell id="a82pPWIUnicryIryXYcl-30" value="Да" style="text;html=1;strokeColor=none;fillColor=none;align=center;verticalAlign=middle;whiteSpace=wrap;rounded=0;shadow=0;" parent="1" vertex="1">
          <mxGeometry x="350" y="500" width="40" height="20" as="geometry" />
        </mxCell>
        <mxCell id="k7usKjHbY5VaeDFLSovS-1" value="Начало" style="text;html=1;strokeColor=none;fillColor=none;align=center;verticalAlign=middle;whiteSpace=wrap;rounded=0;shadow=0;" vertex="1" parent="1">
          <mxGeometry x="320" y="40" width="40" height="20" as="geometry" />
        </mxCell>
        <mxCell id="k7usKjHbY5VaeDFLSovS-2" value="&lt;font style=&quot;font-size: 7px&quot;&gt;whole_part != 0&lt;br&gt;or&lt;br&gt;fractional_part != 0&lt;br&gt;&lt;/font&gt;" style="text;html=1;strokeColor=none;fillColor=none;align=center;verticalAlign=middle;whiteSpace=wrap;rounded=0;shadow=0;" vertex="1" parent="1">
          <mxGeometry x="295" y="430" width="90" height="60" as="geometry" />
        </mxCell>
        <mxCell id="k7usKjHbY5VaeDFLSovS-8" value="" style="edgeStyle=orthogonalEdgeStyle;rounded=0;orthogonalLoop=1;jettySize=auto;html=1;" edge="1" parent="1" source="k7usKjHbY5VaeDFLSovS-4" target="k7usKjHbY5VaeDFLSovS-7">
          <mxGeometry relative="1" as="geometry" />
        </mxCell>
        <mxCell id="k7usKjHbY5VaeDFLSovS-13" value="" style="edgeStyle=orthogonalEdgeStyle;rounded=0;orthogonalLoop=1;jettySize=auto;html=1;entryX=0.5;entryY=0;entryDx=0;entryDy=0;" edge="1" parent="1" source="k7usKjHbY5VaeDFLSovS-4" target="k7usKjHbY5VaeDFLSovS-12">
          <mxGeometry relative="1" as="geometry">
            <Array as="points">
              <mxPoint x="440" y="560" />
              <mxPoint x="440" y="700" />
              <mxPoint x="340" y="700" />
            </Array>
          </mxGeometry>
        </mxCell>
        <mxCell id="k7usKjHbY5VaeDFLSovS-4" value="" style="rhombus;whiteSpace=wrap;html=1;rounded=0;shadow=0;" vertex="1" parent="1">
          <mxGeometry x="280" y="520" width="120" height="80" as="geometry" />
        </mxCell>
        <mxCell id="k7usKjHbY5VaeDFLSovS-6" value="&lt;font style=&quot;font-size: 7px&quot;&gt;prev &amp;gt; fractional_part&lt;/font&gt;" style="text;html=1;strokeColor=none;fillColor=none;align=center;verticalAlign=middle;whiteSpace=wrap;rounded=0;shadow=0;" vertex="1" parent="1">
          <mxGeometry x="300" y="530" width="80" height="60" as="geometry" />
        </mxCell>
        <mxCell id="k7usKjHbY5VaeDFLSovS-7" value="&lt;font style=&quot;font-size: 9px&quot;&gt;in_order_desc = False&lt;/font&gt;" style="whiteSpace=wrap;html=1;rounded=0;shadow=0;" vertex="1" parent="1">
          <mxGeometry x="280" y="620" width="120" height="60" as="geometry" />
        </mxCell>
        <mxCell id="k7usKjHbY5VaeDFLSovS-9" value="Да" style="text;html=1;strokeColor=none;fillColor=none;align=center;verticalAlign=middle;whiteSpace=wrap;rounded=0;shadow=0;" vertex="1" parent="1">
          <mxGeometry x="350" y="600" width="40" height="20" as="geometry" />
        </mxCell>
        <mxCell id="k7usKjHbY5VaeDFLSovS-16" value="" style="edgeStyle=orthogonalEdgeStyle;rounded=0;orthogonalLoop=1;jettySize=auto;html=1;" edge="1" parent="1" source="k7usKjHbY5VaeDFLSovS-12" target="k7usKjHbY5VaeDFLSovS-15">
          <mxGeometry relative="1" as="geometry" />
        </mxCell>
        <mxCell id="k7usKjHbY5VaeDFLSovS-20" value="" style="edgeStyle=orthogonalEdgeStyle;rounded=0;orthogonalLoop=1;jettySize=auto;html=1;" edge="1" parent="1" source="k7usKjHbY5VaeDFLSovS-12" target="k7usKjHbY5VaeDFLSovS-19">
          <mxGeometry relative="1" as="geometry">
            <Array as="points">
              <mxPoint x="440" y="760" />
              <mxPoint x="440" y="900" />
              <mxPoint x="340" y="900" />
            </Array>
          </mxGeometry>
        </mxCell>
        <mxCell id="k7usKjHbY5VaeDFLSovS-12" value="&lt;span style=&quot;font-size: 7px&quot;&gt;prev &amp;lt; fractional_part&lt;/span&gt;" style="rhombus;whiteSpace=wrap;html=1;rounded=0;shadow=0;" vertex="1" parent="1">
          <mxGeometry x="280" y="720" width="120" height="80" as="geometry" />
        </mxCell>
        <mxCell id="k7usKjHbY5VaeDFLSovS-14" value="Нет" style="text;html=1;strokeColor=none;fillColor=none;align=center;verticalAlign=middle;whiteSpace=wrap;rounded=0;shadow=0;" vertex="1" parent="1">
          <mxGeometry x="400" y="540" width="40" height="20" as="geometry" />
        </mxCell>
        <mxCell id="k7usKjHbY5VaeDFLSovS-15" value="&lt;span style=&quot;font-size: 9px&quot;&gt;in_order_acc = False&lt;/span&gt;" style="whiteSpace=wrap;html=1;rounded=0;shadow=0;" vertex="1" parent="1">
          <mxGeometry x="280" y="820" width="120" height="60" as="geometry" />
        </mxCell>
        <mxCell id="k7usKjHbY5VaeDFLSovS-26" value="" style="edgeStyle=orthogonalEdgeStyle;rounded=0;orthogonalLoop=1;jettySize=auto;html=1;" edge="1" parent="1" source="k7usKjHbY5VaeDFLSovS-19" target="k7usKjHbY5VaeDFLSovS-25">
          <mxGeometry relative="1" as="geometry" />
        </mxCell>
        <mxCell id="k7usKjHbY5VaeDFLSovS-19" value="&lt;span style=&quot;font-size: 7px&quot;&gt;!(in_order_acc or in_order_desc)&lt;/span&gt;" style="rhombus;whiteSpace=wrap;html=1;rounded=0;shadow=0;" vertex="1" parent="1">
          <mxGeometry x="280" y="920" width="120" height="80" as="geometry" />
        </mxCell>
        <mxCell id="k7usKjHbY5VaeDFLSovS-21" value="Нет" style="text;html=1;strokeColor=none;fillColor=none;align=center;verticalAlign=middle;whiteSpace=wrap;rounded=0;shadow=0;" vertex="1" parent="1">
          <mxGeometry x="400" y="740" width="40" height="20" as="geometry" />
        </mxCell>
        <mxCell id="k7usKjHbY5VaeDFLSovS-22" value="Да" style="text;html=1;strokeColor=none;fillColor=none;align=center;verticalAlign=middle;whiteSpace=wrap;rounded=0;shadow=0;" vertex="1" parent="1">
          <mxGeometry x="350" y="800" width="40" height="20" as="geometry" />
        </mxCell>
        <mxCell id="k7usKjHbY5VaeDFLSovS-24" value="Да" style="text;html=1;align=center;verticalAlign=middle;resizable=0;points=[];autosize=1;" vertex="1" parent="1">
          <mxGeometry x="405" y="940" width="30" height="20" as="geometry" />
        </mxCell>
        <mxCell id="k7usKjHbY5VaeDFLSovS-29" value="" style="edgeStyle=orthogonalEdgeStyle;rounded=0;orthogonalLoop=1;jettySize=auto;html=1;" edge="1" parent="1" source="k7usKjHbY5VaeDFLSovS-25" target="k7usKjHbY5VaeDFLSovS-28">
          <mxGeometry relative="1" as="geometry" />
        </mxCell>
        <mxCell id="k7usKjHbY5VaeDFLSovS-25" value="&lt;font style=&quot;font-size: 7px&quot;&gt;sum_of_digits += fractional_part&lt;br&gt;count_of_digits +=1&amp;nbsp;&lt;br&gt;prev = fractional_part&lt;/font&gt;" style="whiteSpace=wrap;html=1;rounded=0;shadow=0;" vertex="1" parent="1">
          <mxGeometry x="280" y="1020" width="120" height="60" as="geometry" />
        </mxCell>
        <mxCell id="k7usKjHbY5VaeDFLSovS-27" value="Нет" style="text;html=1;strokeColor=none;fillColor=none;align=center;verticalAlign=middle;whiteSpace=wrap;rounded=0;shadow=0;" vertex="1" parent="1">
          <mxGeometry x="360" y="1000" width="40" height="20" as="geometry" />
        </mxCell>
        <mxCell id="k7usKjHbY5VaeDFLSovS-31" value="" style="edgeStyle=orthogonalEdgeStyle;rounded=0;orthogonalLoop=1;jettySize=auto;html=1;" edge="1" parent="1" source="k7usKjHbY5VaeDFLSovS-28" target="k7usKjHbY5VaeDFLSovS-30">
          <mxGeometry relative="1" as="geometry" />
        </mxCell>
        <mxCell id="k7usKjHbY5VaeDFLSovS-28" value="&lt;font style=&quot;font-size: 7px&quot;&gt;fractional_part = whole_part % 10&lt;br&gt;whole_part //= 10&lt;br&gt;&lt;/font&gt;" style="whiteSpace=wrap;html=1;rounded=0;shadow=0;" vertex="1" parent="1">
          <mxGeometry x="280" y="1100" width="120" height="60" as="geometry" />
        </mxCell>
        <mxCell id="k7usKjHbY5VaeDFLSovS-30" value="" style="rhombus;whiteSpace=wrap;html=1;rounded=0;shadow=0;" vertex="1" parent="1">
          <mxGeometry x="280" y="1200" width="120" height="80" as="geometry" />
        </mxCell>
        <mxCell id="k7usKjHbY5VaeDFLSovS-33" value="" style="endArrow=none;html=1;" edge="1" parent="1">
          <mxGeometry width="50" height="50" relative="1" as="geometry">
            <mxPoint x="400" y="960" as="sourcePoint" />
            <mxPoint x="440" y="960" as="targetPoint" />
          </mxGeometry>
        </mxCell>
        <mxCell id="k7usKjHbY5VaeDFLSovS-34" value="" style="endArrow=none;html=1;" edge="1" parent="1">
          <mxGeometry width="50" height="50" relative="1" as="geometry">
            <mxPoint x="440" y="1180" as="sourcePoint" />
            <mxPoint x="440" y="960" as="targetPoint" />
            <Array as="points" />
          </mxGeometry>
        </mxCell>
        <mxCell id="k7usKjHbY5VaeDFLSovS-37" value="" style="endArrow=classic;html=1;" edge="1" parent="1">
          <mxGeometry width="50" height="50" relative="1" as="geometry">
            <mxPoint x="440" y="1180" as="sourcePoint" />
            <mxPoint x="340" y="1180" as="targetPoint" />
          </mxGeometry>
        </mxCell>
        <mxCell id="k7usKjHbY5VaeDFLSovS-38" value="" style="endArrow=none;html=1;entryX=0;entryY=0.5;entryDx=0;entryDy=0;" edge="1" parent="1" target="a82pPWIUnicryIryXYcl-26">
          <mxGeometry width="50" height="50" relative="1" as="geometry">
            <mxPoint x="240" y="460" as="sourcePoint" />
            <mxPoint x="530" y="540" as="targetPoint" />
          </mxGeometry>
        </mxCell>
        <mxCell id="k7usKjHbY5VaeDFLSovS-39" value="" style="endArrow=none;html=1;" edge="1" parent="1">
          <mxGeometry width="50" height="50" relative="1" as="geometry">
            <mxPoint x="240" y="1180" as="sourcePoint" />
            <mxPoint x="240" y="460" as="targetPoint" />
          </mxGeometry>
        </mxCell>
        <mxCell id="k7usKjHbY5VaeDFLSovS-40" value="" style="endArrow=classic;html=1;" edge="1" parent="1">
          <mxGeometry width="50" height="50" relative="1" as="geometry">
            <mxPoint x="240" y="1180" as="sourcePoint" />
            <mxPoint x="340" y="1180" as="targetPoint" />
          </mxGeometry>
        </mxCell>
      </root>
    </mxGraphModel>
  </diagram>
</mxfile>
